<svg xmlns="http://www.w3.org/2000/svg" xmlns:xlink="http://www.w3.org/1999/xlink" viewBox="2541 3904.909 127.947 129.959">
  <defs>
    <style>
      .cls-1 {
        fill: #fff;
        stroke: #95989a;
      }

      .cls-2 {
        clip-path: url(#clip-path);
      }

      .cls-3 {
        fill: none;
        stroke: #5fa09b;
        stroke-width: 3px;
      }

      .cls-4 {
        fill: #0b8793;
      }
    </style>
    <clipPath id="clip-path">
      <rect id="Rectangle_35" data-name="Rectangle 35" class="cls-1" width="127.947" height="129.96"/>
    </clipPath>
  </defs>
  <g id="accessories" class="cls-2" transform="translate(2541 3904.909)">
    <g id="smartwatch-svgrepo-com" transform="translate(5.192 0)">
      <path id="Path_125" data-name="Path 125" class="cls-3" d="M104.176,130.259h53.948a7.4,7.4,0,0,0,7.161-7.274V9.513a7.4,7.4,0,0,0-7.161-7.274H129.479c-.955,0-3.819,0-5.729,1.94-1.432.97-7.639,7.274-15.277,14.063-1.91,1.94-3.819,3.394-5.729,5.334-2.865,2.91-5.729,6.3-5.729,10.668v34.43" transform="translate(-47.722 -2.239)"/>
      <path id="Path_126" data-name="Path 126" class="cls-3" d="M104.478,27.345s10.026,3.394,16.71-2.91c7.639-6.789,4.3-16.972,4.3-16.972" transform="translate(-50.41 -4.068)"/>
      <path id="Union_16" data-name="Union 16" class="cls-4" d="M6.326,55.281l3.342-5.819-1.909-6.3-4.3,1.455-1.91-7.274L4.893,31.52.12,14.063C-.358,11.638.6,9.213,2.984,8.728L34.97,0h.955a4.836,4.836,0,0,1,4.3,2.91l14.323,54.8c.477,2.425-.477,4.849-2.864,5.334L11.1,74.193ZM11.1,42.673l.955,5.819.477,1.455L12.055,51.4,9.667,55.766l3.82,14.063L50.725,59.646a.473.473,0,0,0,.478-.485v-.485L36.88,3.879c-.477-.485-.477-.485-.955-.485L2.984,12.123c-.477,0-.477.485-.477.97L7.28,30.55,7.758,32,6.8,33.46,4.416,37.824l.955,2.91L6.8,40.248l3.342-.97Zm10.5,9.7-.477-1.455a3.981,3.981,0,0,0,3.342,0c1.91-.485,2.387-1.454,1.91-2.91s-1.433-1.94-3.342-1.94q-3.581,0-4.3-2.909c-.477-1.94.477-3.879,3.342-4.849q2.149-.727,2.864,0l.478,1.455c-.478,0-1.433-.485-2.387,0-2.387.97-2.387,1.94-2.387,2.91.477,1.455,1.432,1.455,3.342,1.94,2.387.485,3.819.97,4.3,2.91a3.886,3.886,0,0,1-3.342,4.849,6.526,6.526,0,0,1-2.029.364A1.9,1.9,0,0,1,21.6,52.372Zm6.206-15.033a23.157,23.157,0,0,1,3.342-1.455,11.3,11.3,0,0,1,5.729,0,5.939,5.939,0,0,1,2.864,4.365,8.227,8.227,0,0,1-.477,5.819,8.436,8.436,0,0,1-5.252,3.395,7,7,0,0,1-2.864.485Zm3.82,0c-.955,0-1.433.485-1.91.485l2.864,10.668a3.563,3.563,0,0,0,1.91-.485c3.342-.97,4.774-3.394,3.82-7.274-.756-2.3-2.11-3.693-4.534-3.693A8.789,8.789,0,0,0,31.629,37.339Z" transform="translate(0 55.766)"/>
    </g>
  </g>
</svg>
