<svg xmlns="http://www.w3.org/2000/svg" viewBox="2768.21 3894.446 143.611 164.435">
  <defs>
    <style>
      .cls-1 {
        fill: #5fa09b;
      }

      .cls-2 {
        fill: #0b8793;
      }
    </style>
  </defs>
  <g id="charging" transform="translate(2752.853 3894.348)">
    <path id="Exclusion_2" data-name="Exclusion 2" class="cls-1" d="M49.125,91.274h0L.614,90.9.089,23.669l11.328.088-.17-21.835A1.854,1.854,0,0,1,11.78.583,1.854,1.854,0,0,1,13.12.049a1.892,1.892,0,0,1,1.9,1.9l.17,21.835,18.88.147L33.9,2.1A1.823,1.823,0,0,1,35.775.226a1.893,1.893,0,0,1,1.9,1.9l.17,21.835,10.753.084.525,67.227Zm-26.507-29.7h0l-3.78,9.577L32.569,54.957l-8.1.219,3.534-8.98-7.937.215L17.115,61.722l5.5-.15Z" transform="translate(90.938 0) rotate(45)"/>
    <path id="Path_108" data-name="Path 108" class="cls-2" d="M26.623,122.321l-.246,0h-.082a1.609,1.609,0,0,1-.657-.087A27.661,27.661,0,0,1,.391,94.948L.327,86.74l4.268.033.064,8.208A23.4,23.4,0,0,0,25.85,117.964l.575,0c.082,0,.739.006,1.641-.069A19.411,19.411,0,0,0,45.642,98.256c-.053-17.319-.565-61.892-.668-75.107a25.642,25.642,0,0,1,3.1-12.7C51.556,4.157,56.945.588,63.838.313L66.054.249l0,.493C74.279,2.529,79.579,8.48,80.963,17.6a23.583,23.583,0,0,1,.273,3.449l.115,14.775-4.186-.033L77.05,21.018c-.008-.985-.1-1.889-.186-2.792C75.655,10.5,71.268,5.871,64.2,4.749c-.164,0-.246,0-.329-.085C58.7,4.952,54.7,7.629,51.95,12.533A22,22,0,0,0,49.406,23.1c.1,13.216.615,57.788.668,75.107a23.656,23.656,0,0,1-21.4,23.8A10.467,10.467,0,0,1,26.623,122.321Z" transform="translate(101.62 20.514) rotate(45)"/>
    <path id="Union_14" data-name="Union 14" class="cls-1" d="M-.022,12.009.011,8.165.035,5.409.011,8.165l.032-3.7L.082.062l20.755-.14-.022,2.2,8.325-.059a2.635,2.635,0,0,1,2.655,2.659l-.057,6.6a2.734,2.734,0,0,1-2.7,2.7l-8.325.054-.018,2.2-20.755.14ZM20.813,3.066l-.089,10.051,8.32-.055a1.761,1.761,0,0,0,1.739-1.739l.062-6.6a1.7,1.7,0,0,0-1.712-1.712Zm5.626,1.689.954-.007-.051,6.6-.955.007ZM.011,8.165l-.025,2.889Z" transform="translate(136.339 110.763) rotate(135)"/>
  </g>
</svg>
