<svg xmlns="http://www.w3.org/2000/svg" viewBox="2754.778 275 69.882 49.882">
  <path d="M61.067,22.076c-7-2.074-9.2,1.856-19,1.856s-11.993-3.946-19-1.856c-7,2.074-10.5,9.42-13.8,23.206-3.306,13.8-2.7,23.767,1.2,25.623s8.3-2.4,12.492-7.657c3.4-4.117,5.1-4.382,19.1-4.382,13.989,0,15.44.109,19.1,4.382,4.2,5.256,8.593,9.513,12.492,7.657s4.507-11.821,1.2-25.623C71.563,31.5,68.054,24.166,61.067,22.076ZM22.141,47.59a6.176,6.176,0,1,1,6.129-6.176A6.15,6.15,0,0,1,22.141,47.59Zm28.306-3.135a3.026,3.026,0,1,1,3.026-3.026A3.025,3.025,0,0,1,50.447,44.455Zm6.581,6.612a3.026,3.026,0,1,1,3.026-3.026A3.025,3.025,0,0,1,57.028,51.068Zm0-13.241A3.026,3.026,0,1,1,60.054,34.8,3.025,3.025,0,0,1,57.028,37.827Zm6.6,6.628a3.026,3.026,0,1,1,3.01-3.026A3.015,3.015,0,0,1,63.625,44.455Z" transform="translate(2747.647 253.535)"/>
</svg>
