<svg xmlns="http://www.w3.org/2000/svg" viewBox="2524 5262 40 31.296">
  <defs>
    <style>
      .cls-1 {
        fill: #fff;
      }
    </style>
  </defs>
  <path id="map" class="cls-1" d="M33.746,84.294,39.9,96.946a.6.6,0,0,1-.585.936H.679a.6.6,0,0,1-.585-.936L6.253,84.294a.713.713,0,0,1,.585-.366h5.281a.739.739,0,0,1,.489.225c.358.414.723.819,1.087,1.219.346.38.693.765,1.038,1.159H8.466a.713.713,0,0,0-.585.366L3.8,95.279H36.2L32.118,86.9a.713.713,0,0,0-.585-.366H25.251c.345-.394.692-.779,1.038-1.159.365-.4.732-.805,1.091-1.219a.739.739,0,0,1,.488-.224h5.292A.713.713,0,0,1,33.746,84.294Zm-4.691-8.647c0,6.913-5.755,8.21-8.462,14.854a.647.647,0,0,1-1.2,0c-2.442-5.99-7.362-7.633-8.3-12.969a9.258,9.258,0,0,1,8.022-10.9A9.063,9.063,0,0,1,29.054,75.647Zm-4.276,0a4.785,4.785,0,1,0-4.785,4.785A4.785,4.785,0,0,0,24.778,75.647Z" transform="translate(2524.001 5195.415)"/>
</svg>
