<svg xmlns="http://www.w3.org/2000/svg" viewBox="3256.945 3904.147 63.974 127.947">
  <defs>
    <style>
      .cls-1 {
        fill: none;
      }

      .cls-2, .cls-6 {
        fill: #5fa09b;
      }

      .cls-3, .cls-5 {
        fill: #0b8793;
      }

      .cls-4, .cls-5, .cls-6 {
        stroke: none;
      }
    </style>
  </defs>
  <g id="phone" transform="translate(3256.945 3904.148)">
    <g id="Path_142" data-name="Path 142" class="cls-1">
      <path class="cls-4" d="M6.4,0H57.576a6.4,6.4,0,0,1,6.4,6.4V121.55a6.4,6.4,0,0,1-6.4,6.4H6.4a6.4,6.4,0,0,1-6.4-6.4V6.4A6.4,6.4,0,0,1,6.4,0Z"/>
      <path class="cls-5" d="M 57.5763053894043 124.9473876953125 C 59.44962692260742 124.9473876953125 60.97368621826172 123.4233474731445 60.97368621826172 121.5500335693359 L 60.97368621826172 6.397369861602783 C 60.97368621826172 4.524050235748291 59.44962692260742 3.000010013580322 57.5763053894043 3.000010013580322 L 6.397365093231201 3.000010013580322 C 4.524044990539551 3.000010013580322 3.000005006790161 4.524050235748291 3.000005006790161 6.397369861602783 L 3.000005006790161 121.5500335693359 C 3.000005006790161 123.4233474731445 4.524044990539551 124.9473876953125 6.397365093231201 124.9473876953125 L 57.5763053894043 124.9473876953125 M 57.5763053894043 127.9473876953125 L 6.397365093231201 127.9473876953125 C 2.864205121994019 127.9473876953125 5.01647946293815e-06 125.0831680297852 5.01647946293815e-06 121.5500335693359 L 5.01647946293815e-06 6.397369861602783 C 5.01647946293815e-06 2.86421012878418 2.864205121994019 1.00329589258763e-05 6.397365093231201 1.00329589258763e-05 L 57.5763053894043 1.00329589258763e-05 C 61.1094856262207 1.00329589258763e-05 63.97368621826172 2.86421012878418 63.97368621826172 6.397369861602783 L 63.97368621826172 121.5500335693359 C 63.97368621826172 125.0831680297852 61.1094856262207 127.9473876953125 57.5763053894043 127.9473876953125 Z"/>
    </g>
    <g id="Path_143" data-name="Path 143" class="cls-1" transform="translate(4.522 6.397)">
      <path class="cls-4" d="M6.1,0H48.827a6.256,6.256,0,0,1,6.1,6.4v99.159a6.256,6.256,0,0,1-6.1,6.4H6.1a6.256,6.256,0,0,1-6.1-6.4V6.4A6.256,6.256,0,0,1,6.1,0Z"/>
      <path class="cls-6" d="M 48.82714080810547 110.9539413452148 C 51.64115524291992 110.9539413452148 53.93052673339844 108.5326995849609 53.93052673339844 105.5565719604492 L 53.93052673339844 6.397374629974365 C 53.93052673339844 3.42125129699707 51.64115524291992 1.00000524520874 48.82714080810547 1.00000524520874 L 6.103386402130127 1.00000524520874 C 3.289371013641357 1.00000524520874 1.000001788139343 3.42125129699707 1.000001788139343 6.397374629974365 L 1.000001788139343 105.5565719604492 C 1.000001788139343 108.5326995849609 3.289371013641357 110.9539413452148 6.103386402130127 110.9539413452148 L 30.16534042358398 110.9539413452148 L 48.82714080810547 110.9539413452148 M 48.82714080810547 111.9539413452148 C 48.82714080810547 111.9539413452148 40.84626388549805 111.9539413452148 30.16534042358398 111.9539413452148 C 19.48440170288086 111.9539413452148 6.103386402130127 111.9539413452148 6.103386402130127 111.9539413452148 C 2.73258638381958 111.9539413452148 1.828237714107672e-06 109.0897445678711 1.828237714107672e-06 105.5565719604492 L 1.828237714107672e-06 6.397374629974365 C 1.828237714107672e-06 2.864205360412598 2.73258638381958 5.256535587250255e-06 6.103386402130127 5.256535587250255e-06 L 48.82714080810547 5.256535587250255e-06 C 52.19795608520508 5.256535587250255e-06 54.93052673339844 2.864205360412598 54.93052673339844 6.397374629974365 L 54.93052673339844 105.5565719604492 C 54.93052673339844 109.0897445678711 52.19795608520508 111.9539413452148 48.82714080810547 111.9539413452148 Z"/>
    </g>
    <path id="Path_145" data-name="Path 145" class="cls-2" d="M.64,0H15.354a.64.64,0,1,1,0,1.279H.64A.64.64,0,0,1,.64,0Z" transform="translate(21.751 4.199)"/>
    <path id="Path_146" data-name="Path 146" class="cls-3" d="M1.5,8.642A92.247,92.247,0,0,1,8.712,1.426,93.872,93.872,0,0,1,1.5,8.644ZM.006,7.254A13.85,13.85,0,0,1,2.974,4.285,14.467,14.467,0,0,1,.022,7.259.022.022,0,0,1,.006,7.254ZM.712,2.842A12.646,12.646,0,0,1,3.548.006,13.231,13.231,0,0,1,.729,2.848.023.023,0,0,1,.712,2.842Zm3.731-.025A12.285,12.285,0,0,1,7.237.022a12.854,12.854,0,0,1-2.777,2.8A.023.023,0,0,1,4.443,2.816Z" transform="translate(55.863 114.661) rotate(180)"/>
    <g id="Path_144" data-name="Path 144" class="cls-1" transform="translate(39.664 3.559)">
      <path class="cls-4" d="M1.279,0A1.279,1.279,0,1,1,0,1.279,1.279,1.279,0,0,1,1.279,0Z"/>
      <path class="cls-6" d="M 1.279473662376404 1.858943700790405 C 1.59899365901947 1.858943700790405 1.858943700790405 1.59899365901947 1.858943700790405 1.279473662376404 C 1.858943700790405 0.9599536657333374 1.59899365901947 0.7000036835670471 1.279473662376404 0.7000036835670471 C 0.9599536657333374 0.7000036835670471 0.7000036835670471 0.9599536657333374 0.7000036835670471 1.279473662376404 C 0.7000036835670471 1.59899365901947 0.9599536657333374 1.858943700790405 1.279473662376404 1.858943700790405 M 1.279473662376404 2.558943748474121 C 0.5728436708450317 2.558943748474121 3.662376457214123e-06 1.986103653907776 3.662376457214123e-06 1.279473662376404 C 3.662376457214123e-06 0.5728436708450317 0.5728436708450317 3.662376457214123e-06 1.279473662376404 3.662376457214123e-06 C 1.986103653907776 3.662376457214123e-06 2.558943748474121 0.5728436708450317 2.558943748474121 1.279473662376404 C 2.558943748474121 1.986103653907776 1.986103653907776 2.558943748474121 1.279473662376404 2.558943748474121 Z"/>
    </g>
    <path id="Union_15" data-name="Union 15" class="cls-3" d="M.176,9.42a.6.6,0,0,1,0-.848l5.4-5.4a.6.6,0,0,1,.848.848l-5.4,5.4a.6.6,0,0,1-.848,0Zm0-3a.6.6,0,0,1,0-.848l1.2-1.2a.6.6,0,1,1,.848.848l-1.2,1.2a.6.6,0,0,1-.848,0Zm2.4-2.4A.592.592,0,0,1,2.4,3.6a.615.615,0,0,1,.174-.426.628.628,0,0,1,.852,0,.608.608,0,0,1,0,.852A.619.619,0,0,1,3,4.2.6.6,0,0,1,2.573,4.018Zm-2.4-.6a.6.6,0,0,1,0-.848l2.4-2.4a.6.6,0,0,1,.848.848l-2.4,2.4a.6.6,0,0,1-.848,0Zm6.6-.6A.617.617,0,0,1,6.6,2.4a.588.588,0,0,1,.18-.426.62.62,0,0,1,.846,0,.608.608,0,0,1,0,.852.608.608,0,0,1-.852,0Zm-3,0a.6.6,0,0,1,0-.848l1.8-1.8a.6.6,0,0,1,.848.848l-1.8,1.8a.6.6,0,0,1-.848,0Zm4.2-1.2a.6.6,0,0,1,0-.848l.6-.6a.6.6,0,0,1,.848.848l-.6.6a.6.6,0,0,1-.848,0Z" transform="translate(7.075 10.149)"/>
  </g>
</svg>
