<svg xmlns="http://www.w3.org/2000/svg" viewBox="2529 5371 30 30">
  <defs>
    <style>
      .cls-1 {
        fill: #fff;
      }
    </style>
  </defs>
  <path id="telephone" class="cls-1" d="M11.033,17.983A25.248,25.248,0,0,0,22.017,28.967L25.683,25.3a1.657,1.657,0,0,1,1.7-.4,19.012,19.012,0,0,0,5.95.95A1.672,1.672,0,0,1,35,27.517v5.817A1.672,1.672,0,0,1,33.333,35,28.331,28.331,0,0,1,5,6.667,1.672,1.672,0,0,1,6.667,5H12.5a1.672,1.672,0,0,1,1.667,1.667,18.934,18.934,0,0,0,.95,5.95,1.673,1.673,0,0,1-.417,1.7Z" transform="translate(2524 5366)"/>
</svg>
