<svg xmlns="http://www.w3.org/2000/svg" viewBox="3975 169.851 40 38.299">
  <path d="M1.8,1.155a1.158,1.158,0,0,1,.186.017h0L8.118,2.218a1.13,1.13,0,0,1,.86.7s0,0,0,0L11.82,10.21l27.733.692a1.135,1.135,0,0,1,1.094,1.269L39.116,24.835a1.139,1.139,0,0,1-1.036.994L18.308,27.4,14.39,30.484l-.014.01-.014.007-.014.01a1.739,1.739,0,0,0-.791,1.665.781.781,0,0,0,.354.53A2.042,2.042,0,0,0,15.1,32.9h.079l23.581.069h0a1.132,1.132,0,1,1-.007,2.264h0l-1.724,0a2.29,2.29,0,1,1-2.443-.01L15.167,35.16a2.289,2.289,0,1,1-1.6-.244,3.685,3.685,0,0,1-2.188-2.143.279.279,0,0,1-.017-.041,3.91,3.91,0,0,1,1.576-3.974l.01-.01s0-.008.007-.01a.278.278,0,0,1,.038-.038l2.776-2.178L7.107,4.341,1.612,3.4h0a1.132,1.132,0,0,1,.2-2.25h0Zm10.851,10.8,1.6,4.094h2.081v-4l-3.678-.093Zm4.473.114v3.981h3.843V12.168l-3.843-.1Zm4.638.114v3.867h3.843V12.281l-3.843-.1ZM26.4,12.3v3.75h3.843V12.4L26.4,12.3Zm4.638.117v3.633h3.843V12.515l-3.843-.1Zm4.638.114v3.52H38.5l.416-3.437-3.234-.083ZM38.4,16.843H35.679v3.6h2.288Zm-3.516,0H31.041v3.6h3.843Zm-4.638,0H26.4v3.6h3.843Zm-4.638,0H21.766v3.6h3.843Zm-4.638,0H17.128v3.6h3.843Zm-4.638,0H14.558l1.4,3.6h.372v-3.6ZM37.871,21.23H35.679v2.58l1.9-.151Zm-2.986,0H31.041v2.948l3.843-.306Zm-4.638,0H26.4v3.317l3.843-.3V21.23Zm-4.638,0H21.766v3.688l3.843-.306V21.23Zm-4.638,0H17.128v2.188l.729,1.868a.854.854,0,0,1,.3-.083l2.811-.224V21.23Zm-4.638,0h-.058l.058.162ZM35.8,35.81a1.347,1.347,0,1,0,1.349,1.349A1.342,1.342,0,0,0,35.8,35.81Zm-21.754,0A1.347,1.347,0,1,0,15.4,37.159,1.342,1.342,0,0,0,14.049,35.81Zm21.754.64a.731.731,0,1,1-.733.733A.729.729,0,0,1,35.8,36.45Zm-21.754,0a.731.731,0,1,1-.733.733A.729.729,0,0,1,14.049,36.45Z" transform="translate(3974.345 168.696)"/>
</svg>
