<svg xmlns="http://www.w3.org/2000/svg" viewBox="6188 1212 45.625 40">
  <defs>
    <style>
      .cls-1 {
        fill: none;
      }

      .cls-2, .cls-4 {
        fill: #f44336;
      }

      .cls-3, .cls-4 {
        stroke: none;
      }
    </style>
  </defs>
  <g id="checkbox" transform="translate(6172 1130.633)">
    <g id="box" class="cls-1" transform="translate(16 83.867)">
      <path class="cls-3" d="M4.688,0H32.813A4.687,4.687,0,0,1,37.5,4.688V32.813A4.688,4.688,0,0,1,32.813,37.5H4.688A4.688,4.688,0,0,1,0,32.813V4.688A4.688,4.688,0,0,1,4.688,0Z"/>
      <path class="cls-4" d="M 32.81250381469727 36.5 C 34.84579467773438 36.5 36.50000381469727 34.84579086303711 36.50000381469727 32.8125 L 36.50000381469727 4.687501907348633 C 36.50000381469727 2.65421199798584 34.84579467773438 1.000001907348633 32.81250381469727 1.000001907348633 L 4.687503814697266 1.000001907348633 C 2.654213905334473 1.000001907348633 1.000003814697266 2.65421199798584 1.000003814697266 4.687501907348633 L 1.000003814697266 32.8125 C 1.000003814697266 34.84579086303711 2.654213905334473 36.5 4.687503814697266 36.5 L 32.81250381469727 36.5 M 32.81250381469727 37.5 L 4.687503814697266 37.5 C 2.098663806915283 37.5 3.814697265625e-06 35.40134048461914 3.814697265625e-06 32.8125 L 3.814697265625e-06 4.687501907348633 C 3.814697265625e-06 2.09866189956665 2.098663806915283 1.9073486328125e-06 4.687503814697266 1.9073486328125e-06 C 4.687503814697266 1.9073486328125e-06 17.92512321472168 1.9073486328125e-06 32.81250381469727 1.9073486328125e-06 C 35.40134429931641 1.9073486328125e-06 37.50000381469727 2.09866189956665 37.50000381469727 4.687501907348633 L 37.50000381469727 32.8125 C 37.50000381469727 35.40134048461914 35.40134429931641 37.5 32.81250381469727 37.5 Z"/>
    </g>
    <path id="check" class="cls-2" d="M17.6,31.919,8.65,22.97,5.667,25.953,17.6,37.884,43.167,12.316,40.184,9.333Z" transform="translate(18.458 72.034)"/>
  </g>
</svg>
