<svg xmlns="http://www.w3.org/2000/svg" viewBox="0 0 677 677"><path d="M243 636c-16-10-36-21-61-35-23-14-44-24-61-34-48-25-72-38-85-59-12-21-12-48-11-101 1-18 1-40 1-68 0-29 0-50-1-69-1-53-1-80 11-101 13-21 37-33 85-59 17-9 38-20 61-34 25-13 45-25 61-35 47-27 71-41 96-41s48 14 95 41c17 10 36 22 61 35 24 14 44 25 62 34 48 26 72 38 84 59 13 21 12 48 11 101 0 19-1 40-1 69 0 28 1 50 1 68 1 53 2 80-11 101-12 21-36 34-84 59-18 10-38 20-62 34-25 14-44 25-61 35-47 27-70 41-95 41s-49-14-96-41zm8-582c-17 10-37 22-61 35-24 14-45 25-62 34-45 24-68 36-79 54-10 17-10 42-8 93v137c-2 51-2 76 8 94 11 17 34 29 79 54 17 9 38 20 62 33s44 25 61 35c45 26 67 40 88 40 20 0 43-14 87-40 17-10 38-22 61-35 25-13 45-24 62-33 46-25 69-37 79-54 10-18 10-43 9-94-1-19-1-43-1-68 0-26 0-49 1-69 1-51 1-76-9-93-10-18-33-30-79-54-17-9-37-20-62-34-23-13-44-25-61-35-44-26-67-39-87-39-21 0-43 13-88 39zm2 557c-16-9-34-20-57-33-23-12-41-22-58-31-88-47-88-47-86-144 1-18 1-39 1-64 0-26 0-46-1-65-2-97-2-97 86-144 17-8 35-18 58-31s41-23 57-33c43-25 64-38 86-38 21 0 43 13 85 38 16 10 35 20 57 33 23 13 42 23 58 31 88 47 88 47 86 144 0 19-1 39-1 65 0 25 1 46 1 64 2 97 2 97-86 144-16 9-35 19-58 31-22 13-41 24-57 33-42 25-64 38-85 38-22 0-43-13-86-38zm133-239c1 20 8 36 21 48s36 18 71 18c22 0 37-2 48-7 12-5 23-13 30-24 8-11 11-22 11-34 0-10-3-21-8-30-5-8-14-15-26-21-11-6-30-11-58-17-10-2-17-4-20-7-4-3-5-6-5-9 0-4 2-7 5-10 4-2 10-4 17-4 9 0 15 2 20 6s9 10 10 18l58-3c-2-19-10-34-24-44-7-5-20-9-37-11-15-2-31-3-46-3h-5c-22 0-44 1-62 2-8 1-14 1-20 1l-40 67-41-66-175 2v194h63v-79h78v-40h-78v-34l74 1 48 69v80l62 1v-81l40-40c3 6 7 12 13 17 12 10 32 18 58 24 16 3 27 7 31 11 2 2 4 4 5 6 2 2 2 5 2 7 0 6-2 11-7 14-2 2-5 4-8 5-4 1-7 1-11 1h-1-1c-5 0-10-1-14-3-5-2-9-5-12-8-4-6-7-13-8-22l-58 5z"></path></svg>