<?xml version="1.0"?>
<svg xmlns="http://www.w3.org/2000/svg" viewBox="0 0 32 32">
    <path style="text-indent:0;text-align:start;line-height:normal;text-transform:none;block-progression:tb;-inkscape-font-specification:Sans" d="M 11.46875 5 C 7.9162454 5 5 7.9154247 5 11.46875 L 5 20.53125 C 5 24.083755 7.9154247 27 11.46875 27 L 20.53125 27 C 24.083755 27 27 24.084575 27 20.53125 L 27 11.46875 C 27 7.9162454 24.084575 5 20.53125 5 L 11.46875 5 z M 11.46875 7 L 20.53125 7 C 23.003925 7 25 8.9972546 25 11.46875 L 25 20.53125 C 25 23.003925 23.002745 25 20.53125 25 L 11.46875 25 C 8.9960753 25 7 23.002745 7 20.53125 L 7 11.46875 C 7 8.9960753 8.9972546 7 11.46875 7 z M 21.90625 9.1875 C 21.404224 9.1875 21 9.5917228 21 10.09375 C 21 10.595776 21.404224 11 21.90625 11 C 22.408277 11 22.8125 10.595776 22.8125 10.09375 C 22.8125 9.5917228 22.408277 9.1875 21.90625 9.1875 z M 16 10 C 12.698136 10 10 12.698136 10 16 C 10 19.301864 12.698136 22 16 22 C 19.301864 22 22 19.301864 22 16 C 22 12.698136 19.301864 10 16 10 z M 16 12 C 18.220984 12 20 13.779016 20 16 C 20 18.220984 18.220984 20 16 20 C 13.779016 20 12 18.220984 12 16 C 12 13.779016 13.779016 12 16 12 z" overflow="visible" font-family="Sans"/>
</svg>
