<svg xmlns="http://www.w3.org/2000/svg" viewBox="10640.999 1395 39.999 41.12">
  <path id="Union_23" data-name="Union 23" class="cls-1" d="M-10087.605-130.714l9.271-3.567,2.139-1.9a1.523,1.523,0,0,1,2.139.238l3.09,2.852,3.091-2.852a1.234,1.234,0,0,1,1.9-.238l2.142,1.9,9.506,3.567c3.09,1.187,3.09,11.647,3.328,12.6l-39.932.238C-10091.173-118.83-10090.934-129.288-10087.605-130.714Zm7.129-19.253c0-5.944,3.329-9.032,9.509-9.032s9.271,3.088,9.271,9.032c0,13.548-9.271,13.073-9.271,13.073-.135.005-.269.008-.4.008C-10077.069-136.886-10080.477-141.837-10080.477-149.967Z" transform="translate(20732.001 1553.999)"/>
</svg>
