<svg xmlns="http://www.w3.org/2000/svg" viewBox="4866.659 543 379.68 400.999">
  <g id="Поиск" transform="translate(4237 115)">
    <path id="Union_5" data-name="Union 5" class="cls-1" d="M-4492.894-94.236c-9.494,0-19.764-4.869-19.764-10.885,0-.327.081-.655.081-.981h55.123c0,.327.042.655.042.981,0,6.016-10.23,10.885-19.726,10.885ZM-4517.242-112c-6.629,0-12.072-4.869-12.072-10.927,0-6.016,5.4-10.885,12.072-10.885h64.454c6.67,0,12.071,4.869,12.071,10.885,0,6.057-5.4,10.927-12.071,10.927Zm0-27.541c-6.629,0-12.072-4.911-12.072-10.885,0-6.056,5.4-10.927,12.072-10.927h64.454c6.67,0,12.071,4.87,12.071,10.927,0,5.974-5.4,10.885-12.071,10.885Zm-.286-28.769c-15.51-.04-28.114-11.335-28.114-25.372v-.9c0-3.11-.2-15.346-2.25-25.044-.409-1.965-1.76-4.5-4.625-7.735-2.783-3.233-6.875-7-11.54-11.417-9.331-8.881-20.912-20.584-28.522-37.894-5.034-11.54-8.308-25.5-8.308-42.478,0-23.653,8.758-45.546,23.449-63.1a116.208,116.208,0,0,1,51.071-34.661l-.082-.491,8.39-2.21a129.876,129.876,0,0,1,20.788-3.642l1.023-.124h.042c3.478-.286,7.121-.531,10.885-.531h.573c3.806,0,7.407.245,10.886.531h.081l1.024.124a129.876,129.876,0,0,1,20.788,3.642l8.676,2.292-.123.491a116.059,116.059,0,0,1,50.785,34.579c14.732,17.515,23.448,39.409,23.448,63.1.042,22.3-5.606,39.367-13.5,52.544-7.857,13.259-17.8,22.59-25.577,29.956-5.238,4.911-9.454,9-11.663,12.276a13.282,13.282,0,0,0-2.251,4.788c-2.045,9.7-2.25,21.976-2.25,25.045v.859c0,14-12.562,25.372-28.114,25.372Zm7.571-234.813-2.456.655a97.491,97.491,0,0,0-49.353,30.937c-12.235,14.609-19.478,32.7-19.478,52.422.041,19.642,4.787,33.392,11.213,44.237,6.425,10.8,14.691,18.743,22.507,26.068,5.157,4.911,10.148,9.535,14.077,15.141a29.66,29.66,0,0,1,4.87,10.845A150.564,150.564,0,0,1-4526-194.537v.9a7.209,7.209,0,0,0,2.455,5.4,8.937,8.937,0,0,0,6.016,2.25h65.026c4.665,0,8.471-3.4,8.471-7.653v-.859c.042-3.642.123-16.41,2.578-28.318,1.31-6.1,4.665-11.089,8.471-15.428,3.846-4.42,8.226-8.389,12.727-12.686,8.962-8.553,18.292-18.128,24.512-32.246,4.134-9.413,6.917-20.993,6.875-35.971a81.121,81.121,0,0,0-19.437-52.422,97.389,97.389,0,0,0-49.312-30.937l-2.5-.655a108.28,108.28,0,0,0-14.773-2.5l-.983-.082h.041c-2.945-.245-5.852-.409-8.675-.409l-.491.04-.492-.04c-2.865.04-5.728.2-8.715.45l-.942.082h-.04A115.8,115.8,0,0,0-4509.957-403.119Z" transform="translate(5304.536 923.236)"/>
    <path id="Union_6" data-name="Union 6" class="cls-1" d="M-4294.745-131.516l-23.163-20.912a185.114,185.114,0,0,0,15.837-18.006l25.249,22.754a10.6,10.6,0,0,1,0,16.164,13.38,13.38,0,0,1-8.962,3.345A13.378,13.378,0,0,1-4294.745-131.516Zm-250.529,0a10.652,10.652,0,0,1,0-16.164l25.249-22.754a185.31,185.31,0,0,0,15.837,18.006l-23.161,20.912a13.383,13.383,0,0,1-8.963,3.345A13.38,13.38,0,0,1-4545.274-131.516Zm267.512-109.713c.082-2.17.123-4.338.123-6.589a118.17,118.17,0,0,0-1.187-16.246h44.973c7,0,12.646,5.115,12.646,11.417s-5.647,11.417-12.646,11.417Zm-310.48,0c-6.956,0-12.645-5.115-12.645-11.417s5.689-11.417,12.645-11.417h44.975a124.977,124.977,0,0,0-1.187,16.246c0,2.25.082,4.419.164,6.589Zm262.069-104.107,31.469-28.4a13.677,13.677,0,0,1,17.924,0,10.608,10.608,0,0,1,0,16.124L-4308.7-328.8A136.516,136.516,0,0,0-4326.174-345.337Zm-219.1-12.276a10.652,10.652,0,0,1,0-16.164,13.679,13.679,0,0,1,17.925,0l31.469,28.4a130.935,130.935,0,0,0-17.433,16.573Zm134.594-16.819h-.736c-4.133,0-8.226.245-12.277.613V-412.49c0-6.3,5.647-11.417,12.646-11.417,6.956,0,12.645,5.115,12.645,11.417v38.671C-4402.412-374.187-4406.546-374.432-4410.68-374.432Z" transform="translate(5230.547 851.908)"/>
    <path id="Union_7" data-name="Union 7" class="cls-1" d="M-4087.264,160.794a9.021,9.021,0,0,1,9.044-9.044,9.047,9.047,0,0,1,9.043,9.044,9.047,9.047,0,0,1-9.043,9.044A9.047,9.047,0,0,1-4087.264,160.794Zm.9-31.838v-2.947c0-11.295,8.553-18.21,25.453-27.827a28.917,28.917,0,0,0,13.341-31.142c-2.292-10.762-12.727-20.3-24.8-22.671a31.215,31.215,0,0,0-5.892-.532c-17.515,0-32.861,13.709-32.861,29.383v8.839a2.01,2.01,0,0,1,.041.491,7.946,7.946,0,0,1-7.939,7.939,7.938,7.938,0,0,1-7.939-7.448h-.04V73.26c0-24.553,22.343-45.26,48.78-45.26a48.8,48.8,0,0,1,8.8.778c18.416,3.56,33.761,17.965,37.362,34.947a44.638,44.638,0,0,1-20.83,48.126l-.04.04c-11.664,6.63-17.556,11.377-17.556,14.118v2.947c0,4.618-3.89,6.86-7.819,6.86C-4082.314,135.816-4086.364,133.482-4086.364,128.956Z" transform="translate(4898.907 529.52)"/>
  </g>
</svg>
