<svg xmlns="http://www.w3.org/2000/svg" viewBox="2993 265 70 70">
  <path d="M10.45,59.946A22.473,22.473,0,0,0,16.5,59.5a55.03,55.03,0,0,0,11.954-4.1,111.237,111.237,0,0,0,13.857-7.675h.035l.021-.037.028-.019-.009-.014,6.291-10.9a110.472,110.472,0,0,1-.36,14.019,53.956,53.956,0,0,1-2.375,12.146,19.281,19.281,0,0,1-3.3,6.236,35.061,35.061,0,0,1-32.2-9.215Zm36.519,3.323a55.026,55.026,0,0,0,2.428-12.4,111.206,111.206,0,0,0,.281-15.837L49.7,35l-.022-.037c0-.019,0-.031,0-.034h-.016l-6.291-10.9a110.45,110.45,0,0,1,11.96,7.321,53.937,53.937,0,0,1,9.332,8.13,19.284,19.284,0,0,1,3.753,5.976A35.074,35.074,0,0,1,44.322,68.745,22.421,22.421,0,0,0,46.969,63.269ZM9.251,58.706A35.061,35.061,0,0,1,1.116,26.2a22.43,22.43,0,0,0,3.418,5.031,55.034,55.034,0,0,0,9.526,8.3A111.23,111.23,0,0,0,27.635,47.7l.017.03H27.7l.03.015.007-.015H40.315a110.435,110.435,0,0,1-12.32,6.7,53.933,53.933,0,0,1-11.707,4.017,23.489,23.489,0,0,1-4.488.478A14.413,14.413,0,0,1,9.251,58.706Zm5.424-20.061a53.935,53.935,0,0,1-9.332-8.13A19.281,19.281,0,0,1,1.59,24.539,35.074,35.074,0,0,1,25.679,1.255a22.444,22.444,0,0,0-2.648,5.475,55.026,55.026,0,0,0-2.427,12.4,111.242,111.242,0,0,0-.282,15.838L20.3,35l.021.037c0,.02,0,.031,0,.034h.017l6.291,10.9A110.5,110.5,0,0,1,14.675,38.646Zm50.791.123a55.018,55.018,0,0,0-9.526-8.3A111.17,111.17,0,0,0,42.365,22.3l-.017-.03H42.3l-.03-.015-.007.015H29.685a110.488,110.488,0,0,1,12.32-6.7,53.919,53.919,0,0,1,11.707-4.017,19.306,19.306,0,0,1,7.037-.265A35.064,35.064,0,0,1,68.884,43.8,22.424,22.424,0,0,0,65.466,38.769ZM21.681,19.221A53.915,53.915,0,0,1,24.056,7.075a19.293,19.293,0,0,1,3.3-6.236,35.061,35.061,0,0,1,32.2,9.215A22.473,22.473,0,0,0,53.5,10.5a55.031,55.031,0,0,0-11.954,4.1,111.237,111.237,0,0,0-13.857,7.675h-.035l-.021.037-.028.019.009.014-6.291,10.9A110.473,110.473,0,0,1,21.681,19.221Z" transform="translate(2993 265)"/>
</svg>
