<svg xmlns="http://www.w3.org/2000/svg" viewBox="3623.444 3909.481 117.556 113.349">
  <defs>
    <style>
      .cls-1 {
        fill: #0b8793;
      }

      .cls-2 {
        fill: #5fa09b;
      }
    </style>
  </defs>
  <g id="headphone" transform="translate(3623.444 3909.481)">
    <path id="Path_124" data-name="Path 124" class="cls-1" d="M19.842,22.752l20.821-3.315.143,28.591c.012,2.366-1.721,4.248-4.437,4.93-2.984.733-5.871-.547-6.459-2.868s1.36-4.8,4.342-5.545a6.606,6.606,0,0,1,3.79.149l-.086-17.228L22.7,30.218l.035,21.427c0,2.027-1.8,4.014-4.4,4.651-2.946.733-6.049-.7-6.389-2.831-.577-2.3,1.342-4.749,4.3-5.485a6.456,6.456,0,0,1,3.726.138ZM12.061,33.2,12,6.715s5.7-.279,11.317,8.6a10.9,10.9,0,0,0-4.309-7.931C10.613,1.424,10.629.026,10.629.026A1.8,1.8,0,0,0,8.876,1.433L9.015,29.32a7.124,7.124,0,0,0-4.1-.15c-3.245.8-5.355,3.5-4.721,6.029.377,2.335,3.783,3.918,7.025,3.109,2.849-.705,4.831-2.875,4.835-5.11Zm15.07-17.037a2.034,2.034,0,0,0,1.682-1.778h0L28.8,5.169s1.982-.1,3.937,2.992a3.793,3.793,0,0,0-1.5-2.757c-2.922-2.073-2.914-2.56-2.914-2.56a.627.627,0,0,0-.612.489l.048,9.7a2.46,2.46,0,0,0-1.423-.056,1.907,1.907,0,0,0-1.642,2.1C24.82,15.893,26,16.443,27.131,16.161Zm9.824.073a1.417,1.417,0,0,0,1.171-1.239l-.014-6.418s1.381-.068,2.743,2.082a2.643,2.643,0,0,0-1.043-1.921c-2.036-1.445-2.032-1.784-2.032-1.784a.438.438,0,0,0-.426.342l.034,6.76a1.711,1.711,0,0,0-.993-.036,1.326,1.326,0,0,0-1.144,1.46C35.34,16.047,36.166,16.432,36.955,16.234Z" transform="matrix(0.94, 0.342, -0.342, 0.94, 49.466, 46.293)"/>
    <path id="Union_17" data-name="Union 17" class="cls-2" d="M94.343,107.1a5.813,5.813,0,0,1-3.773-7.246c2.712-9.162,5.483-18.3,8.214-27.447a5.944,5.944,0,0,1,3.931-3.993,1.646,1.646,0,0,0,.943-1.038c2.928-17.007-.393-32.517-11.143-46.071a43.007,43.007,0,0,0-24.9-16.029A40.8,40.8,0,0,0,32.045,13.9,51.615,51.615,0,0,0,13.258,46.775c-.531,3.234-.668,6.428-1.042,9.981.393,3.373.806,6.986,1.3,10.6a1.408,1.408,0,0,0,.845.938,5.94,5.94,0,0,1,4.5,4.432q3.931,13.434,8.018,26.868a5.879,5.879,0,0,1-1.147,5.845,5.663,5.663,0,0,1-5.61,1.742,5.763,5.763,0,0,1-4.169-4.193l-6.6-22.157C8.816,79.093,8.3,77.336,7.814,75.6A5.937,5.937,0,0,1,8.993,70.01a2.3,2.3,0,0,0,.393-1.617C5.947,47.574,10.624,29.209,25.461,14.058A45.283,45.283,0,0,1,53.25.345a44.963,44.963,0,0,1,34.2,9.98A56.208,56.208,0,0,1,108,45.677a61.44,61.44,0,0,1-.177,22.537,2.179,2.179,0,0,0,.511,1.6,5.751,5.751,0,0,1,1.415,5.749q-4.088,13.873-8.274,27.706a5.719,5.719,0,0,1-5.451,4.091A5.626,5.626,0,0,1,94.343,107.1ZM8.52,105.127a2.6,2.6,0,0,1-1.826-2.16Q3.333,92.107.11,81.249A2.69,2.69,0,0,1,.562,78.84a2.6,2.6,0,0,1,2.2-1.005,2.587,2.587,0,0,1,2.319,2q3.282,10.859,6.485,21.658a2.649,2.649,0,0,1-.362,2.823,2.559,2.559,0,0,1-1.961.92A2.532,2.532,0,0,1,8.52,105.127Zm99.836-.224a2.645,2.645,0,0,1-2.123-1.287,2.73,2.73,0,0,1-.157-2.506q2.094-7.066,4.226-14.132c.727-2.415,1.415-4.831,2.182-7.246a2.611,2.611,0,0,1,2.948-1.856,2.748,2.748,0,0,1,2.122,2.835,6.243,6.243,0,0,1-.295,1.218l-6.112,20.48c-.495,1.641-1.394,2.5-2.662,2.5Z" transform="translate(0)"/>
  </g>
</svg>
