<svg xmlns="http://www.w3.org/2000/svg" viewBox="3570.706 265 72.793 70">
  <path d="M54.032,69.474,37.047,60.5a1.4,1.4,0,0,0-1.3,0L18.756,69.474a4.486,4.486,0,0,1-6.52-4.722l3.224-18.9a1.679,1.679,0,0,0-.479-1.477L1.347,31.014a4.478,4.478,0,0,1,2.488-7.63L22.65,20.636a1.685,1.685,0,0,0,1.267-.924l8.446-17.2A4.467,4.467,0,0,1,36.4,0h0a4.46,4.46,0,0,1,4.028,2.51l8.445,17.2a1.694,1.694,0,0,0,1.272.927l18.82,2.75a4.473,4.473,0,0,1,2.485,7.622L57.805,44.373a1.675,1.675,0,0,0-.479,1.476l3.226,18.9a4.479,4.479,0,0,1-6.52,4.722ZM38.355,58.024,55.341,67a1.688,1.688,0,0,0,2.453-1.777l-3.226-18.9a4.466,4.466,0,0,1,1.278-3.945L69.487,29.01a1.674,1.674,0,0,0-.93-2.854l-18.819-2.75a4.486,4.486,0,0,1-3.382-2.463l-8.445-17.2a1.69,1.69,0,0,0-3.034,0l-8.446,17.2a4.48,4.48,0,0,1-3.376,2.46L4.24,26.155a1.678,1.678,0,0,0-.933,2.861L16.941,42.374a4.467,4.467,0,0,1,1.278,3.947l-3.224,18.9A1.688,1.688,0,0,0,17.448,67l16.987-8.975a4.175,4.175,0,0,1,3.92,0Zm7.518-5-8.205-4.182a2.8,2.8,0,0,0-2.543,0L26.92,53.02a1.574,1.574,0,0,1-2.306-1.6l1.676-9.475a1.48,1.48,0,0,0-.441-1.333l-7.176-6.782a1.51,1.51,0,0,1,.882-2.6l9.873-1.39A1.583,1.583,0,0,0,30.622,29l4.351-8.547a1.6,1.6,0,0,1,2.849,0L42.171,29a1.58,1.58,0,0,0,1.194.839l9.873,1.392a1.51,1.51,0,0,1,.882,2.6L46.955,40.6a1.505,1.505,0,0,0-.449,1.358l1.673,9.46A1.547,1.547,0,0,1,46.617,53.2,1.631,1.631,0,0,1,45.873,53.021Z" transform="translate(3570.706 265)"/>
</svg>
