<svg xmlns="http://www.w3.org/2000/svg" viewBox="3008.73 3898.02 140.73 142.503">
  <defs>
    <style>
      .cls-1 {
        fill: #0b8793;
      }

      .cls-2 {
        fill: none;
        stroke: #5fa09b;
        stroke-linecap: round;
        stroke-miterlimit: 10;
        stroke-width: 12.069px;
      }
    </style>
  </defs>
  <g id="watch" transform="translate(3000.821 3943.925) rotate(-45)">
    <path id="Path_112" data-name="Path 112" class="cls-1" d="M51.142,18.219l2.134,3.752-53.36.416L2.108,18.6A18.538,18.538,0,0,0,4.657,9.44h0C4.7,4.29,9.521.08,15.43.034L38.108-.143c5.91-.046,10.668,4.09,10.628,9.239h0A18.138,18.138,0,0,0,51.142,18.219Z" transform="translate(11.456 -0.043)"/>
    <path id="Path_113" data-name="Path 113" class="cls-1" d="M2.133,3.967,0,.215,53.359-.2,51.167,3.585a18.538,18.538,0,0,0-2.548,9.162h0c-.04,5.149-4.864,9.36-10.774,9.406l-22.678.177c-5.91.046-10.668-4.09-10.628-9.239h0A18.138,18.138,0,0,0,2.133,3.967Z" transform="translate(10.119 124.399)"/>
    <path id="Path_114" data-name="Path 114" class="cls-1" d="M1.734,17.78l-1.8.014L.072.007l1.8-.014c.584,0,1.045,1.464,1.031,3.28l-.087,11.21C2.8,16.3,2.318,17.775,1.734,17.78Z" transform="translate(80.5 80.281)"/>
    <path id="Path_115" data-name="Path 115" class="cls-1" d="M3.944,17.771-.067,17.8.072.016,4.082-.015c1.3-.01,2.341,1.453,2.327,3.27l-.087,11.21C6.308,16.281,5.243,17.761,3.944,17.771Z" transform="translate(80.822 50)"/>
    <path id="Path_116" data-name="Path 116" class="cls-2" d="M65.689,84.237l-56.5.441A9.369,9.369,0,0,1-.283,75.205L.227,9.813A9.729,9.729,0,0,1,9.849.191l56.5-.441a9.369,9.369,0,0,1,9.473,9.473l-.51,65.393A9.727,9.727,0,0,1,65.689,84.237Z" transform="translate(-0.118 31.283)"/>
    <g id="Group_79" data-name="Group 79" transform="translate(8.873 40.238)">
      <path id="Union_15" data-name="Union 15" class="cls-1" d="M.513,35.052a2.222,2.222,0,0,1,.025-3.144L20.7,11.742a2.206,2.206,0,1,1,3.119,3.119L3.658,35.027a2.253,2.253,0,0,1-1.577.664A2.183,2.183,0,0,1,.513,35.052ZM.6,23.935a2.222,2.222,0,0,1,.025-3.144L5.106,16.31a2.206,2.206,0,1,1,3.12,3.119L3.744,23.911a2.253,2.253,0,0,1-1.577.664A2.183,2.183,0,0,1,.6,23.935Zm8.956-8.978a2.16,2.16,0,0,1-.632-1.551A2.248,2.248,0,0,1,12.738,11.8a2.3,2.3,0,0,1,.632,1.574,2.375,2.375,0,0,1-.657,1.583,2.333,2.333,0,0,1-1.584.657A2.188,2.188,0,0,1,9.556,14.957ZM.687,12.818A2.222,2.222,0,0,1,.711,9.674L9.674.712a2.206,2.206,0,1,1,3.119,3.119L3.831,12.794a2.253,2.253,0,0,1-1.577.664A2.183,2.183,0,0,1,.687,12.818Zm24.467-2.407a2.253,2.253,0,0,1-.632-1.574A2.215,2.215,0,0,1,25.2,7.254a2.3,2.3,0,0,1,3.135-.024A2.3,2.3,0,0,1,28.968,8.8a2.243,2.243,0,0,1-2.24,2.241A2.3,2.3,0,0,1,25.154,10.411Zm-11.11.08a2.22,2.22,0,0,1,.025-3.144L20.791.625A2.206,2.206,0,1,1,23.91,3.744l-6.722,6.722a2.252,2.252,0,0,1-1.577.664A2.183,2.183,0,0,1,14.044,10.491Zm15.6-4.568a2.222,2.222,0,0,1,.025-3.144L31.908.538a2.206,2.206,0,1,1,3.119,3.119L32.786,5.9a2.253,2.253,0,0,1-1.577.664A2.183,2.183,0,0,1,29.642,5.923Z" transform="translate(0 0)"/>
    </g>
  </g>
</svg>
